<svg xmlns="http://www.w3.org/2000/svg" viewBox="0 0 64 64" role="img" aria-label="Melodify logo">
  <rect width="64" height="64" rx="14" fill="#07080d"/>
  <path d="M15.5 28.5c3.9-8.5 13.8-14.3 22.4-10.6 7.8 3.3 9.5 13 5.8 20.6-3 6.2-9.3 10.6-15.8 9.1-5.6-1.3-8.2-6.7-6-11.5 1.9-4.2 6.6-6.9 10.5-5.4 3.3 1.3 4.1 5.3 2.2 8.2-1.7 2.6-4.9 3.7-7.4 2.3" fill="none" stroke="#c9c4ff" stroke-width="5.5" stroke-linecap="round"/>
  <path d="M10.5 20.5c2.9 3.1 6.1 4.7 9.7 4.8m24.4 18.2c3.4 1.6 6.1 4 8 7.1" fill="none" stroke="#c9c4ff" stroke-width="5.5" stroke-linecap="round"/>
  <path d="M47.8 15.5h4.5m-2.2-2.2v4.5M55.4 25.4h2.8m-1.4-1.4v2.8" fill="none" stroke="#7d70ff" stroke-width="2" stroke-linecap="round"/>
</svg>
